# xmcd CD database file
#
# Track frame offsets:
#	150
#	15184
#	25587
#	34340
#	43587
#	54342
#	64665
#	73907
#	88325
#	97090
#	113020
#	123677
#	132860
#
# Disc length: 1918 seconds
#
# Revision: 0
# Processed by: cddbd v1.5.1PL0 Copyright (c) Steve Scherf et al.
# Submitted via: CDex 1.51
#
DISCID=af077c0d
DTITLE=Charlie Miller - Peace Horn
DYEAR=1997
DGENRE=Jazz
TTITLE0=Day Break
TTITLE1=Lullaby Grand Mere
TTITLE2=Toe-Tapper
TTITLE3=Peace Horn
TTITLE4=Sweet Magnolia Blues
TTITLE5=Mr. Blue Heron
TTITLE6=Ole Man Blues
TTITLE7=Lullaby Ma Mere
TTITLE8=Dialog with Oneself
TTITLE9=Evening Song
TTITLE10=Eternal Grace
TTITLE11=Tribute to New Orleans Hispanics
TTITLE12=Lullaby Peace Dreams
EXTD=YEAR: 1997
EXTT0=
EXTT1=
EXTT2=
EXTT3=
EXTT4=
EXTT5=
EXTT6=
EXTT7=
EXTT8=
EXTT9=
EXTT10=
EXTT11=
EXTT12=
PLAYORDER=
